<svg preserveAspectRatio="xMidYMid meet" data-bbox="0 0 148.195 36.518" viewBox="0 0 148.195 36.518" xmlns="http://www.w3.org/2000/svg" data-type="color" role="presentation" aria-hidden="true" aria-label="">
    <g>
        <g>
            <path fill="#59595c" d="m74.26 23.321 5.228-17.855.028-.096h-3.539L72.62 17.497 68.578 5.421l-.017-.051h-2.373l-3.907 12.451-3.492-12.397-.016-.054h-3.538l5.037 17.896.015.055h3.188l3.888-11.714 3.913 11.714h2.984z" data-color="1"></path>
            <path d="M94.124 6.181a9.452 9.452 0 0 0-9.103 0 8.253 8.253 0 0 0-3.156 3.284 10.16 10.16 0 0 0-1.141 4.88 10.154 10.154 0 0 0 1.141 4.88 8.25 8.25 0 0 0 3.156 3.284 9.453 9.453 0 0 0 9.103 0 8.25 8.25 0 0 0 3.156-3.284 10.162 10.162 0 0 0 1.141-4.88 10.168 10.168 0 0 0-1.141-4.88 8.253 8.253 0 0 0-3.156-3.284zm.739 8.164a6.686 6.686 0 0 1-1.368 4.378 5.484 5.484 0 0 1-7.844 0 6.685 6.685 0 0 1-1.369-4.378 6.68 6.68 0 0 1 1.369-4.376 5.483 5.483 0 0 1 7.844 0 6.681 6.681 0 0 1 1.368 4.376z" fill="#59595c" data-color="1"></path>
            <path d="M111.738 15.802a5.62 5.62 0 0 0 2.197-1.886 5.47 5.47 0 0 0 .802-3.08 5.03 5.03 0 0 0-1.668-4.088 6.926 6.926 0 0 0-4.537-1.378h-6.585v17.95h3.406v-6.612h3.185l3.433 6.612h3.808zm-.56-4.788c0 1.9-1.148 2.824-3.51 2.824h-2.315V8.24h2.442a3.879 3.879 0 0 1 2.594.706 2.632 2.632 0 0 1 .79 2.067z" fill="#59595c" data-color="1"></path>
            <path fill="#59595c" d="M117.109 8.674h5.035v14.647h3.406V8.674h5.034V5.37h-13.475v3.304z" data-color="1"></path>
            <path fill="#59595c" d="M144.789 5.37v7.044h-7.987V5.37h-3.405v17.951h3.405v-7.706h7.987v7.706h3.406V5.37h-3.406z" data-color="1"></path>
            <path d="M65.214 28.52a3.21 3.21 0 0 1 .828.102 5.583 5.583 0 0 1 .807.288l.094.042.155-1.362-.046-.024a3.967 3.967 0 0 0-1.828-.415 3.876 3.876 0 0 0-1.895.46 3.32 3.32 0 0 0-1.308 1.298 3.883 3.883 0 0 0-.47 1.925 3.994 3.994 0 0 0 .455 1.935 3.206 3.206 0 0 0 1.284 1.293 3.873 3.873 0 0 0 1.894.455 4.336 4.336 0 0 0 1.866-.414l.048-.023-.155-1.364-.094.042a5.296 5.296 0 0 1-.825.293 3.433 3.433 0 0 1-.84.098 1.941 1.941 0 0 1-1.553-.63 2.514 2.514 0 0 1-.542-1.685 2.481 2.481 0 0 1 .55-1.685 1.982 1.982 0 0 1 1.575-.629z" fill="#59595c" data-color="1"></path>
            <path d="M73.779 27.612a3.734 3.734 0 0 0-3.595 0 3.267 3.267 0 0 0-1.248 1.298 4.343 4.343 0 0 0 0 3.849 3.264 3.264 0 0 0 1.248 1.297 3.734 3.734 0 0 0 3.595 0 3.256 3.256 0 0 0 1.247-1.298 4.337 4.337 0 0 0 0-3.848 3.262 3.262 0 0 0-1.247-1.298zm.22 3.222a2.564 2.564 0 0 1-.524 1.677 2.092 2.092 0 0 1-2.987 0 2.947 2.947 0 0 1 0-3.354 2.091 2.091 0 0 1 2.987 0 2.562 2.562 0 0 1 .523 1.677z" fill="#59595c" data-color="1"></path>
            <path fill="#59595c" d="m81.668 31.597-2.825-4.274-.022-.033h-1.366v7.089h1.419v-4.585l3.034 4.552.023.033h1.156V27.29h-1.419v4.307z" data-color="1"></path>
            <path d="M87.986 30.138a8.84 8.84 0 0 1-.8-.285 1.145 1.145 0 0 1-.405-.278.58.58 0 0 1-.14-.406.532.532 0 0 1 .263-.482 1.57 1.57 0 0 1 .822-.177 3.927 3.927 0 0 1 .997.131 7.744 7.744 0 0 1 1.114.398l.094.041.144-1.457-.052-.021a7.246 7.246 0 0 0-1.056-.32 5.3 5.3 0 0 0-1.162-.13 2.938 2.938 0 0 0-1.921.561 1.86 1.86 0 0 0-.682 1.495 1.786 1.786 0 0 0 .255.978 1.99 1.99 0 0 0 .685.649 5.992 5.992 0 0 0 1.064.466c.446.158.774.282.975.37a1.224 1.224 0 0 1 .444.306.66.66 0 0 1 .146.443.602.602 0 0 1-.265.538 1.38 1.38 0 0 1-.78.19 5.386 5.386 0 0 1-2.267-.626l-.095-.046-.162 1.453-.005.052.047.023a5.105 5.105 0 0 0 1.062.353 5.558 5.558 0 0 0 1.271.16 2.95 2.95 0 0 0 2.176-.63 2.086 2.086 0 0 0 .586-1.467 1.785 1.785 0 0 0-.576-1.4 4.95 4.95 0 0 0-1.777-.882z" fill="#59595c" data-color="1"></path>
            <path fill="#59595c" d="M91.668 28.67h1.963v5.709h1.42V28.67h1.962v-1.38h-5.345v1.38z" data-color="1"></path>
            <path d="M103.474 30.692a2.174 2.174 0 0 0 .32-1.227 2.005 2.005 0 0 0-.666-1.628 2.743 2.743 0 0 0-1.799-.547h-2.612v7.09h1.419V31.8h1.165l1.32 2.538.022.041h1.588l-1.59-2.958a2.218 2.218 0 0 0 .833-.729zm-3.338-2.191h.907a1.467 1.467 0 0 1 .98.263.985.985 0 0 1 .292.772c0 .71-.432 1.054-1.323 1.054h-.856z" fill="#59595c" data-color="1"></path>
            <path d="M110.26 31.003a4.689 4.689 0 0 1-.126 1.185 1.27 1.27 0 0 1-.454.708 1.912 1.912 0 0 1-1.901 0 1.275 1.275 0 0 1-.454-.708 4.682 4.682 0 0 1-.126-1.185V27.29h-1.42v4.04a3.444 3.444 0 0 0 .743 2.334v.001a3.286 3.286 0 0 0 4.415 0 3.445 3.445 0 0 0 .742-2.335v-4.04h-1.419z" fill="#59595c" data-color="1"></path>
            <path d="M117.227 28.52a3.21 3.21 0 0 1 .829.102 5.524 5.524 0 0 1 .807.288l.093.042.156-1.362-.046-.024a3.968 3.968 0 0 0-1.829-.415 3.875 3.875 0 0 0-1.894.46 3.32 3.32 0 0 0-1.309 1.298 3.877 3.877 0 0 0-.47 1.925 3.994 3.994 0 0 0 .455 1.935 3.205 3.205 0 0 0 1.284 1.293 3.876 3.876 0 0 0 1.894.455 4.337 4.337 0 0 0 1.867-.414l.048-.023-.156-1.363-.093.041a5.447 5.447 0 0 1-.826.294 3.477 3.477 0 0 1-.84.097 1.939 1.939 0 0 1-1.553-.63 2.513 2.513 0 0 1-.542-1.685 2.481 2.481 0 0 1 .552-1.685 1.982 1.982 0 0 1 1.573-.629z" fill="#59595c" data-color="1"></path>
            <path fill="#59595c" d="M120.571 28.67h1.962v5.709h1.42V28.67h1.963v-1.38h-5.345v1.38z" data-color="1"></path>
            <path fill="#59595c" d="M129.039 27.29v7.089h-1.419V27.29h1.419z" data-color="1"></path>
            <path d="M136.328 27.612a3.734 3.734 0 0 0-3.594 0 3.267 3.267 0 0 0-1.248 1.298 4.339 4.339 0 0 0 0 3.849 3.267 3.267 0 0 0 1.248 1.297 3.734 3.734 0 0 0 3.594 0 3.256 3.256 0 0 0 1.248-1.298 4.337 4.337 0 0 0 0-3.848 3.262 3.262 0 0 0-1.248-1.298zm.22 3.222a2.562 2.562 0 0 1-.524 1.677 2.091 2.091 0 0 1-2.986 0 2.946 2.946 0 0 1 0-3.354 2.09 2.09 0 0 1 2.986 0 2.56 2.56 0 0 1 .524 1.677z" fill="#59595c" data-color="1"></path>
            <path fill="#59595c" d="m144.218 31.597-2.826-4.274-.022-.033h-1.365v7.089h1.419v-4.585l3.034 4.552.023.033h1.156V27.29h-1.419v4.307z" data-color="1"></path>
            <path fill="#48652f" d="M37.714 30.68 50.552 0h-6.763l-9.368 22.699 1.72 4.168 1.573 3.813z" data-color="2"></path>
            <path fill="#48652f" d="M31.053 14.538 37.024 0h-6.763l-2.598 6.324 1.726 4.182 1.664 4.032z" data-color="2"></path>
            <path fill="#48652f" d="M25.243 12.217 20.201 0h-6.673l8.366 20.37-3.354 8.167L6.763 0H0l15.07 36.518h6.955l3.251-7.914 3.251 7.914h6.744l-3.276-7.939-3.363-8.148-3.389-8.214z" data-color="2"></path>
            <path fill="#48652f" d="m25.243 12.217 3.389 8.214-3.389-8.214z" data-color="2"></path>
        </g>
    </g>
</svg>